<?xml version="1.0" encoding="UTF-8"?>
<svg xmlns="http://www.w3.org/2000/svg" xmlns:xlink="http://www.w3.org/1999/xlink" width="32px" height="32px" viewBox="0 0 32 32" version="1.1">
<g id="surface1">
<path style=" stroke:none;fill-rule:nonzero;fill:rgb(48.235294%,24.313726%,95.686275%);fill-opacity:1;" d="M 14.941406 9.703125 C 14.742188 10.570312 15.59375 11.328125 16.460938 11.054688 C 17.222656 10.816406 17.949219 11.511719 17.71875 12.261719 L 16.769531 15.34375 L 19.136719 16.035156 C 19.234375 14.238281 21.097656 13.007812 22.875 13.660156 C 24.433594 14.234375 25.15625 16.074219 24.269531 17.539062 L 27.503906 18.484375 C 30.414062 16.121094 29.6875 11.570312 25.847656 10.234375 C 26.988281 8.089844 25.675781 5.011719 23.320312 4.324219 C 22.472656 4.074219 20.949219 4.023438 20.171875 4.300781 L 18.753906 8.902344 C 18.523438 9.652344 17.523438 9.839844 17.023438 9.230469 C 16.410156 8.488281 15.164062 8.746094 14.941406 9.703125 Z M 14.941406 9.703125 "/>
<path style=" stroke:none;fill-rule:nonzero;fill:rgb(48.235294%,24.313726%,95.686275%);fill-opacity:1;" d="M 26.714844 19.847656 L 22.972656 18.761719 C 22.207031 18.535156 22.011719 17.5625 22.636719 17.074219 C 23.347656 16.519531 23.171875 15.410156 22.316406 15.09375 C 21.371094 14.746094 20.46875 15.625 20.765625 16.523438 C 21.011719 17.269531 20.296875 17.976562 19.527344 17.753906 L 16.316406 16.8125 L 15.621094 19.070312 C 17.464844 19.164062 18.726562 20.984375 18.058594 22.710938 C 17.472656 24.230469 15.582031 24.9375 14.078125 24.074219 L 12.898438 27.902344 C 14.988281 30.679688 20.125 30.105469 20.546875 26.636719 C 24.4375 27.558594 27.828125 23.582031 26.714844 19.847656 Z M 26.714844 19.847656 "/>
<path style=" stroke:none;fill-rule:nonzero;fill:rgb(48.235294%,24.313726%,95.686275%);fill-opacity:1;" d="M 8.605469 12.949219 C 9.371094 13.175781 9.566406 14.148438 8.941406 14.640625 C 8.183594 15.230469 8.4375 16.449219 9.425781 16.667969 C 10.316406 16.863281 11.089844 16.03125 10.8125 15.1875 C 10.566406 14.441406 11.28125 13.734375 12.046875 13.960938 L 15.261719 14.902344 L 15.957031 12.640625 C 14.214844 12.554688 13.039062 10.949219 13.40625 9.363281 C 13.824219 7.570312 15.902344 6.722656 17.5 7.636719 L 18.664062 3.859375 C 16.574219 1.082031 11.082031 2.820312 10.660156 6.289062 C 6.671875 5.339844 4.285156 8.433594 5.382812 12.007812 Z M 8.605469 12.949219 "/>
<path style=" stroke:none;fill-rule:nonzero;fill:rgb(48.235294%,24.313726%,95.686275%);fill-opacity:1;" d="M 16.585938 22.167969 C 16.941406 21.25 16.046875 20.367188 15.117188 20.65625 C 14.355469 20.898438 13.628906 20.203125 13.859375 19.453125 L 14.808594 16.371094 L 12.4375 15.675781 C 12.347656 17.425781 10.59375 18.613281 8.886719 18.113281 C 7.164062 17.609375 6.40625 15.664062 7.308594 14.171875 L 4.410156 13.324219 C 1.472656 15.714844 2.371094 21.3125 6.246094 22.664062 C 5.105469 24.804688 6.539062 26.84375 8.894531 27.535156 C 9.746094 27.785156 10.613281 27.738281 11.390625 27.460938 L 12.824219 22.808594 C 13.054688 22.0625 14.054688 21.871094 14.554688 22.480469 C 15.125 23.171875 16.265625 23.003906 16.585938 22.167969 Z M 16.585938 22.167969 "/>
</g>
</svg>
